HIERARCHY
ROOT Hips
{
	OFFSET 0.000000 0.000000 0.000000
	CHANNELS 6 Xposition Yposition Zposition Xrotation Yrotation Zrotation
	JOINT LeftUpLeg_virtual
	{
		OFFSET 0.000000 0.000000 0.000000
		CHANNELS 3 Xrotation Yrotation Zrotation
		JOINT LeftUpLeg
		{
			OFFSET 15.427100 -6.655098 0.678600
			CHANNELS 3 Xrotation Yrotation Zrotation
			JOINT LeftLeg
			{
				OFFSET 4.081073 -39.591068 13.024000
				CHANNELS 3 Xrotation Yrotation Zrotation
				JOINT LeftFoot
				{
					OFFSET -4.081074 -37.707932 -15.979700
					CHANNELS 3 Xrotation Yrotation Zrotation
					JOINT LeftToeBase
					{
						OFFSET 5.346399 -15.068900 20.645000
						CHANNELS 3 Xrotation Yrotation Zrotation
						JOINT LeftToe_End
						{
							OFFSET 2.754700 0.931300 11.300900
							CHANNELS 3 Xrotation Yrotation Zrotation
							End Site
							{
								OFFSET 0 0 0
							}
						}
					}
				}
			}
		}
	}
	JOINT RightUpLeg_virtual
	{
		OFFSET 0.000000 0.000000 0.000000
		CHANNELS 3 Xrotation Yrotation Zrotation
		JOINT RightUpLeg
		{
			OFFSET -15.569500 -6.655098 0.678600
			CHANNELS 3 Xrotation Yrotation Zrotation
			JOINT RightLeg
			{
				OFFSET -4.081825 -39.591045 13.023800
				CHANNELS 3 Xrotation Yrotation Zrotation
				JOINT RightFoot
				{
					OFFSET 4.081824 -37.707954 -15.979600
					CHANNELS 3 Xrotation Yrotation Zrotation
					JOINT RightToeBase
					{
						OFFSET -5.346400 -15.068900 20.645000
						CHANNELS 3 Xrotation Yrotation Zrotation
						JOINT RightToe_End
						{
							OFFSET -2.754700 0.931300 11.300900
							CHANNELS 3 Xrotation Yrotation Zrotation
							End Site
							{
								OFFSET 0 0 0
							}
						}
					}
				}
			}
		}
	}
	JOINT Spine_virtual
	{
		OFFSET 0.000000 0.000000 0.000000
		CHANNELS 3 Xrotation Yrotation Zrotation
		JOINT Spine
		{
			OFFSET -0.279200 12.230698 -2.892100
			CHANNELS 3 Xrotation Yrotation Zrotation
			JOINT Spine1
			{
				OFFSET -0.232667 10.192268 -1.242267
				CHANNELS 3 Xrotation Yrotation Zrotation
				JOINT Spine1_split
				{
					OFFSET -0.232667 10.192268 -1.242267
					CHANNELS 3 Xrotation Yrotation Zrotation
					JOINT Spine2
					{
						OFFSET -0.232667 10.192268 -1.242267
						CHANNELS 3 Xrotation Yrotation Zrotation
						JOINT Neck_virtual
						{
							OFFSET 0.000000 0.000000 0.000000
							CHANNELS 3 Xrotation Yrotation Zrotation
							JOINT Neck
							{
								OFFSET -0.418800 17.814194 8.416900
								CHANNELS 3 Xrotation Yrotation Zrotation
								JOINT Head
								{
									OFFSET 0.000000 7.031097 3.806800
									CHANNELS 3 Xrotation Yrotation Zrotation
									JOINT HeadTop_End
									{
										OFFSET 0.000000 24.646606 12.978600
										CHANNELS 3 Xrotation Yrotation Zrotation
										End Site
										{
											OFFSET 0 0 0
										}
									}
								}
							}
						}
						JOINT LeftShoulder_virtual
						{
							OFFSET 0.000000 0.000000 0.000000
							CHANNELS 3 Xrotation Yrotation Zrotation
							JOINT LeftShoulder
							{
								OFFSET 8.476499 7.247704 -3.868750
								CHANNELS 3 Xrotation Yrotation Zrotation
								JOINT LeftShoulder_split
								{
									OFFSET 8.476499 7.247704 -3.868750
									CHANNELS 3 Xrotation Yrotation Zrotation
									JOINT LeftArm
									{
										OFFSET 9.308998 -2.777710 0.208600
										CHANNELS 3 Xrotation Yrotation Zrotation
										JOINT LeftForeArm
										{
											OFFSET 29.972298 0.000000 0.000000
											CHANNELS 3 Xrotation Yrotation Zrotation
											JOINT LeftHand
											{
												OFFSET 26.026505 0.000000 0.000000
												CHANNELS 3 Xrotation Yrotation Zrotation
												End Site
												{
													OFFSET 0 0 0
												}
											}
										}
									}
								}
							}
						}
						JOINT RightShoulder_virtual
						{
							OFFSET 0.000000 0.000000 0.000000
							CHANNELS 3 Xrotation Yrotation Zrotation
							JOINT RightShoulder
							{
								OFFSET -7.570500 7.247704 -3.868750
								CHANNELS 3 Xrotation Yrotation Zrotation
								JOINT RightShoulder_split
								{
									OFFSET -7.570500 7.247704 -3.868750
									CHANNELS 3 Xrotation Yrotation Zrotation
									JOINT RightArm
									{
										OFFSET -9.308998 -2.777710 0.208500
										CHANNELS 3 Xrotation Yrotation Zrotation
										JOINT RightForeArm
										{
											OFFSET -29.972300 0.000000 0.000000
											CHANNELS 3 Xrotation Yrotation Zrotation
											JOINT RightHand
											{
												OFFSET -26.026505 0.000000 0.000000
												CHANNELS 3 Xrotation Yrotation Zrotation
												End Site
												{
													OFFSET 0 0 0
												}
											}
										}
									}
								}
							}
						}
					}
				}
			}
		}
	}
}
MOTION
Frames: 11
Frame Time: 0.03333333
2.161810 50.780392 -18.757187 0.000000 0.000000 0.000000 30.421772 -1.666551 2.494396 -99.197235 -14.299053 28.148811 103.763735 3.965747 -3.706858 -1.033086 -17.250756 -10.981989 -28.226428 -1.202456 -2.501107 0.000000 0.000000 0.000000 32.924439 -1.976585 2.417128 -98.126855 -7.162443 -13.885384 111.427884 24.938597 3.078976 -24.981832 4.488790 -16.977272 -34.189055 1.058931 0.548330 0.000000 0.000000 0.000000 32.412290 -8.120465 3.187682 7.692211 2.749622 -2.772678 23.898799 1.850768 -4.747578 1.490069 -0.187908 0.815105 0.000000 0.000000 0.000000 23.544328 1.863070 -4.758694 -26.031760 -4.845892 0.889907 -28.848264 -7.783357 3.349862 0.000000 0.000000 0.000000 22.701947 2.096009 -5.253110 1.652858 -2.188553 1.147482 0.743818 -5.612250 0.696844 -22.580657 -27.945126 -22.509006 -150.978012 -82.426921 -151.504784 0.000000 0.000000 0.000000 23.311410 2.205911 -5.138490 7.415853 28.468099 6.732143 0.007307 2.302016 -1.075343 -33.735667 8.070171 27.754998 9.992033 72.702029 -20.603681 0.000000 0.000000 0.000000 
2.082048 47.857197 -18.971008 0.000000 0.000000 0.000000 32.464285 1.451425 2.661210 -97.290143 -18.652266 29.375476 108.106636 4.388640 -1.915482 -6.784632 -16.777154 -19.506518 -29.843412 -1.005551 -2.909679 0.000000 0.000000 0.000000 35.005204 0.227682 2.813946 -104.794643 -0.489908 -13.075834 116.801740 22.294014 1.048673 -22.931539 1.638271 -14.476760 -36.258438 1.043091 0.908982 0.000000 0.000000 0.000000 35.389700 -5.658134 3.518392 6.499239 2.282959 -3.050768 22.092235 1.610204 -3.940838 1.684065 -0.076382 1.133629 0.000000 0.000000 0.000000 21.632473 1.553641 -4.061524 -21.605941 -4.454952 0.212442 -30.364941 -9.243631 2.914921 0.000000 0.000000 0.000000 20.810862 1.770771 -4.336820 1.186026 -2.068507 -0.439842 0.532679 -5.202379 0.562581 -21.148793 -32.474008 -21.820924 -157.630753 -82.338040 -159.389595 0.000000 0.000000 0.000000 21.206045 1.730878 -4.388433 7.490077 30.510838 9.159256 0.069608 2.301424 -1.201021 -35.889830 13.461555 25.255944 6.254579 66.647750 -15.181969 0.000000 0.000000 0.000000 
2.022987 45.702675 -19.403954 0.000000 0.000000 0.000000 33.974396 4.045870 2.668033 -94.855222 -22.776408 30.264186 109.363835 3.913050 0.180151 -10.668842 -16.808331 -29.027283 -30.125540 -1.052253 -2.842158 0.000000 0.000000 0.000000 36.466937 1.691950 3.143614 -109.931943 4.729279 -12.267021 120.097784 20.029390 -0.386102 -19.595125 -0.436540 -10.426589 -37.408611 1.154145 1.001822 0.000000 0.000000 0.000000 37.692997 -3.521221 3.743419 5.586224 1.585424 -3.197864 20.075733 1.379550 -2.986849 1.522072 -0.009244 1.420820 0.000000 0.000000 0.000000 19.531923 1.231416 -3.232348 -17.452959 -4.068788 -0.451333 -31.676525 -10.155102 2.581215 0.000000 0.000000 0.000000 18.849594 1.388169 -3.341779 0.691933 -1.707569 -2.401380 0.038972 -4.364632 0.007953 -19.141178 -36.999504 -23.083236 -158.445677 -84.668732 -161.195115 0.000000 0.000000 0.000000 18.980568 1.277176 -3.461802 7.412542 31.560467 11.707620 -0.202878 2.229487 -1.065593 -37.669989 17.138521 23.951289 4.166382 61.585739 -11.250298 0.000000 0.000000 0.000000 
1.953006 44.161438 -19.731888 0.000000 0.000000 0.000000 34.986251 5.978669 2.456631 -92.793550 -26.210962 31.088620 109.080853 3.217899 1.817317 -12.336856 -17.397574 -36.985150 -31.557581 -1.403124 -2.160467 0.000000 0.000000 0.000000 37.394340 2.526199 3.277867 -113.242631 7.860230 -11.738285 121.731374 17.985039 -1.075606 -16.850292 -1.613690 -6.332405 -36.857763 1.384611 0.873571 0.000000 0.000000 0.000000 39.147584 -1.755967 3.800547 5.112745 0.759644 -3.199228 18.172967 1.144301 -2.074808 1.279137 -0.308230 1.506041 0.000000 0.000000 0.000000 17.568566 0.911168 -2.419050 -14.147395 -3.713213 -1.027877 -32.802202 -10.550558 2.436781 0.000000 0.000000 0.000000 17.137313 0.940216 -2.469042 0.206760 -1.240143 -4.410757 -0.758912 -3.045761 -0.774822 -17.082076 -40.637932 -25.506211 -142.865373 -88.514703 -146.275441 0.000000 0.000000 0.000000 17.002714 0.858897 -2.536481 7.288399 31.711079 13.951983 -0.562728 1.926261 -0.587634 -39.223837 19.064858 23.512230 2.911682 58.264574 -8.172643 0.000000 0.000000 0.000000 
1.770193 42.994209 -19.967659 0.000000 0.000000 0.000000 35.535671 7.047256 2.125784 -91.461369 -28.380916 32.106090 108.826975 3.249533 2.107854 -12.675342 -17.930155 -41.063145 -34.314140 -1.741345 -1.975589 0.000000 0.000000 0.000000 37.938036 3.031654 3.120034 -114.866256 8.744665 -11.757832 122.374997 15.981301 -0.835274 -15.608806 -2.287390 -3.657206 -35.344860 1.662360 0.645000 0.000000 0.000000 0.000000 39.725917 -0.179865 3.597920 5.120926 -0.081885 -3.057561 16.661809 0.878920 -1.352081 1.062769 -0.972408 1.405249 0.000000 0.000000 0.000000 16.040057 0.617081 -1.767191 -11.952642 -3.479494 -1.436229 -33.789622 -10.419426 2.506698 0.000000 0.000000 0.000000 15.880591 0.500985 -1.828400 -0.224664 -0.771146 -6.205674 -1.735662 -1.562448 -1.641776 -15.499350 -43.056399 -28.286325 2.582467 -87.197747 -1.130071 0.000000 0.000000 0.000000 15.505551 0.506177 -1.773055 7.243101 31.075155 15.511643 -0.576477 1.753948 0.097178 -40.581443 19.799982 23.389583 2.038255 56.613389 -5.666849 0.000000 0.000000 0.000000 
1.548182 42.059914 -20.226768 0.000000 0.000000 0.000000 35.758844 7.321692 1.717277 -91.110864 -28.966607 33.384998 109.203838 4.198947 1.224747 -13.030067 -17.766352 -41.631294 -37.894204 -1.719820 -2.650423 0.000000 0.000000 0.000000 38.085603 3.284631 2.742347 -115.245085 7.784061 -12.422218 122.696822 14.018124 0.112728 -15.442479 -2.776664 -2.524045 -33.877854 1.933660 0.347245 0.000000 0.000000 0.000000 39.572774 1.179858 3.168964 5.548727 -0.863840 -2.824290 15.690360 0.608774 -0.914585 0.911560 -1.946584 1.328781 0.000000 0.000000 0.000000 15.047410 0.390986 -1.365565 -10.862717 -3.326350 -1.687527 -34.637457 -9.784434 2.754461 0.000000 0.000000 0.000000 15.146819 0.121376 -1.464316 -0.591385 -0.465837 -7.479828 -2.779826 -0.119304 -2.400324 -14.730655 -43.921118 -30.710655 9.615382 -84.415032 5.947699 0.000000 0.000000 0.000000 14.597550 0.245127 -1.262352 7.279342 30.098800 16.392521 -0.368895 2.021451 0.880455 -41.725434 20.229062 23.193226 1.363156 55.744152 -3.665342 0.000000 0.000000 0.000000 
1.325119 41.379436 -20.222176 0.000000 0.000000 0.000000 35.922530 7.035929 1.353745 -91.103208 -28.360074 34.916849 110.135974 5.349818 0.151573 -14.257444 -17.052518 -40.594550 -41.355269 -1.477816 -3.654231 0.000000 0.000000 0.000000 37.933351 3.472579 2.279459 -115.160213 5.870755 -13.524542 122.998402 12.367108 1.195432 -15.829582 -2.897087 -2.230974 -32.990275 2.155628 0.027573 0.000000 0.000000 0.000000 39.163625 2.317091 2.598571 6.122215 -1.481155 -2.533136 15.263173 0.349706 -0.716210 1.194648 -2.851721 1.312040 0.000000 0.000000 0.000000 14.591186 0.233166 -1.206307 -10.556693 -3.269467 -1.800838 -35.317696 -8.804942 3.088738 0.000000 0.000000 0.000000 14.873749 -0.160855 -1.313700 -0.880956 -0.294695 -8.213244 -3.602849 0.831133 -2.797684 -14.586419 -43.590824 -32.502261 13.732323 -83.627354 10.325041 0.000000 0.000000 0.000000 14.222169 0.071808 -0.998209 7.299231 29.034116 16.699693 -0.088866 2.852595 1.679811 -42.667270 21.045469 22.925458 0.853127 54.969970 -2.185878 0.000000 0.000000 0.000000 
1.200408 41.029945 -20.108345 0.000000 0.000000 0.000000 36.145539 6.600771 1.002543 -91.428270 -27.172601 36.227853 111.032457 6.014312 -0.569378 -15.902881 -16.193859 -39.359467 -42.937680 -1.093719 -4.769041 0.000000 0.000000 0.000000 37.817279 3.895666 1.687414 -115.089931 3.905619 -14.776725 123.240873 11.104841 2.006800 -16.377486 -2.501028 -2.411520 -32.552808 2.292654 -0.283861 0.000000 0.000000 0.000000 38.649882 2.958594 2.109050 6.546201 -1.898560 -2.233654 15.275300 0.140956 -0.670286 1.576832 -3.264537 1.274694 0.000000 0.000000 0.000000 14.528630 0.146209 -1.257360 -10.575487 -3.338657 -1.910494 -35.651689 -7.669292 3.410232 0.000000 0.000000 0.000000 14.992053 -0.321154 -1.244832 -1.078097 -0.167867 -8.495435 -4.330731 1.195724 -2.856857 -14.436073 -42.595819 -33.594395 19.886465 -84.566314 16.875712 0.000000 0.000000 0.000000 14.207365 -0.017235 -0.915308 7.203182 28.056703 16.739559 0.006141 3.994301 2.475706 -43.331991 22.327936 22.609383 0.509534 54.251189 -1.229889 0.000000 0.000000 0.000000 
1.171166 41.011730 -19.782242 0.000000 0.000000 0.000000 36.516329 6.278614 0.607068 -92.072569 -26.135683 37.217270 111.260619 5.796549 -0.558769 -17.308169 -15.703240 -38.800187 -42.800308 -0.934885 -5.298664 0.000000 0.000000 0.000000 37.980735 4.601127 1.037524 -115.137196 2.310439 -15.882073 123.362164 10.058137 2.344952 -16.978344 -1.679439 -2.866019 -32.234313 2.381353 -0.645429 0.000000 0.000000 0.000000 38.332832 3.082851 1.811843 6.592735 -2.113709 -1.958457 15.525816 0.028009 -0.704158 2.119109 -3.064132 1.210802 0.000000 0.000000 0.000000 14.645937 0.125036 -1.424341 -10.568242 -3.446986 -2.088696 -35.644831 -6.701599 3.598999 0.000000 0.000000 0.000000 15.260502 -0.353081 -1.177790 -1.228632 -0.124146 -8.493390 -4.717394 1.040337 -2.644767 -14.210988 -41.428161 -34.349264 32.607849 -86.193941 29.976846 0.000000 0.000000 0.000000 14.377318 -0.032530 -0.931556 6.956061 27.352867 16.826931 -0.212722 4.763362 2.920356 -43.684039 23.699703 22.348125 0.245386 53.783874 -0.686769 0.000000 0.000000 0.000000 
1.127666 41.172581 -19.257446 0.000000 0.000000 0.000000 37.149546 6.278135 0.162714 -92.831498 -25.371180 38.104382 110.670853 5.014880 -0.297324 -18.116915 -15.670450 -38.117107 -41.325069 -1.119683 -5.247178 0.000000 0.000000 0.000000 38.343398 5.356790 0.462046 -115.329821 1.168200 -16.865147 123.372614 9.299264 2.308405 -17.230066 -0.604187 -3.320275 -31.954261 2.468516 -1.106978 0.000000 0.000000 0.000000 38.179962 2.943629 1.604626 6.245964 -2.167911 -1.711432 15.825608 0.010401 -0.792326 2.176902 -2.316588 1.144906 0.000000 0.000000 0.000000 14.814989 0.171668 -1.604581 -10.399231 -3.669879 -2.455919 -35.451581 -5.918976 3.565351 0.000000 0.000000 0.000000 15.422668 -0.247286 -1.070717 -1.338255 -0.229326 -8.544684 -4.693491 0.442200 -2.475388 -13.887726 -40.614559 -35.058282 52.737065 -87.198232 50.334618 0.000000 0.000000 0.000000 14.537629 -0.011254 -0.968615 6.675693 26.899131 17.025266 -0.875489 4.930148 2.996097 -43.602254 24.481652 22.037761 0.060612 53.771603 -0.473018 0.000000 0.000000 0.000000 
1.162123 41.327858 -18.584831 0.000000 0.000000 0.000000 37.914390 6.444963 -0.216902 -93.708112 -24.856944 39.021523 109.686049 4.231185 -0.385884 -18.307494 -15.802056 -36.901026 -38.855160 -1.343054 -5.174589 0.000000 0.000000 0.000000 38.779734 6.026146 -0.023687 -115.664240 0.376188 -17.963911 123.355771 8.789572 2.089796 -17.007091 0.492538 -3.542623 -31.981831 2.570244 -1.659540 0.000000 0.000000 0.000000 38.112076 2.750159 1.455629 5.717538 -2.129117 -1.486002 16.075639 0.083135 -0.897257 1.759427 -1.355636 1.086392 0.000000 0.000000 0.000000 14.920780 0.285109 -1.743642 -10.155336 -3.898686 -3.005994 -35.207740 -5.315243 3.301783 0.000000 0.000000 0.000000 15.390465 -0.076914 -0.925476 -1.446482 -0.619112 -8.657673 -4.191683 -0.322385 -2.583721 -13.667777 -40.011477 -35.782067 59.830340 -87.279326 57.527419 0.000000 0.000000 0.000000 14.618024 0.050279 -0.991183 6.418619 26.779147 17.438709 -1.563373 4.622479 2.703250 -43.033634 24.241779 21.655726 0.038294 54.035696 -0.567580 0.000000 0.000000 0.000000 
